<svg width="20" height="20" viewBox="0 0 20 20" fill="none" xmlns="http://www.w3.org/2000/svg">
  <path d="M9.334 18.6668C9.63279 18.6668 9.90189 18.5533 10.099 18.3552C10.2961 18.1572 10.4096 17.8881 10.4096 17.5893V13.5893C10.4096 13.2905 10.2961 13.0214 10.099 12.8233C9.90189 12.6253 9.63279 12.5118 9.334 12.5118C9.03521 12.5118 8.76611 12.6253 8.569 12.8233C8.37189 13.0214 8.25842 13.2905 8.25842 13.5893V17.5893C8.25842 17.8881 8.37189 18.1572 8.569 18.3552C8.76611 18.5533 9.03521 18.6668 9.334 18.6668Z" fill="#7986AC"/>
  <path d="M15.666 18.6668C15.9648 18.6668 16.2339 18.5533 16.431 18.3552C16.6281 18.1572 16.7416 17.8881 16.7416 17.5893V9.58932C16.7416 9.29053 16.6281 9.02143 16.431 8.82334C16.2339 8.62524 15.9648 8.51178 15.666 8.51178C15.3672 8.51178 15.0981 8.62524 14.901 8.82334C14.7039 9.02143 14.5904 9.29053 14.5904 9.58932V17.5893C14.5904 17.8881 14.7039 18.1572 14.901 18.3552C15.0981 18.5533 15.3672 18.6668 15.666 18.6668Z" fill="#7986AC"/>
  <path d="M2.334 18.6668C2.63279 18.6668 2.90189 18.5533 3.099 18.3552C3.29611 18.1572 3.40958 17.8881 3.40958 17.5893V5.58932C3.40958 5.29053 3.29611 5.02143 3.099 4.82334C2.90189 4.62524 2.63279 4.51178 2.334 4.51178C2.03521 4.51178 1.76611 4.62524 1.569 4.82334C1.37189 5.02143 1.25842 5.29053 1.25842 5.58932V17.5893C1.25842 17.8881 1.37189 18.1572 1.569 18.3552C1.76611 18.5533 2.03521 18.6668 2.334 18.6668Z" fill="#7986AC"/>
</svg>
