<svg width="20" height="20" viewBox="0 0 20 20" fill="none" xmlns="http://www.w3.org/2000/svg">
  <path fill-rule="evenodd" clip-rule="evenodd" d="M10 2C6.68629 2 4 4.68629 4 8V12C4 15.3137 6.68629 18 10 18H16C16.5523 18 17 17.5523 17 17V8C17 6.34315 15.6569 5 14 5H10V2ZM10 6H14C15.1046 6 16 6.89543 16 8V16H10C8.89543 16 8 15.1046 8 14C8 12.8954 8.89543 12 10 12H12V8H10V6ZM6 8C6 5.79086 7.79086 4 10 4C12.2091 4 14 5.79086 14 8C14 10.2091 12.2091 12 10 12C7.79086 12 6 10.2091 6 8Z" fill="#7986AC"/>
</svg>
