<svg width="20" height="20" viewBox="0 0 20 20" fill="none" xmlns="http://www.w3.org/2000/svg">
  <path fill-rule="evenodd" clip-rule="evenodd" d="M10 13C11.1046 13 12 12.1046 12 11C12 9.89543 11.1046 9 10 9C8.89543 9 8 9.89543 8 11C8 12.1046 8.89543 13 10 13ZM15 11C15 12.1046 15.8954 13 17 13C18.1046 13 19 12.1046 19 11C19 9.89543 18.1046 9 17 9C15.8954 9 15 9.89543 15 11ZM5 11C5 12.1046 5.89543 13 7 13C8.10457 13 9 12.1046 9 11C9 9.89543 8.10457 9 7 9C5.89543 9 5 9.89543 5 11Z" fill="#7986AC"/>
</svg>
