<svg width="20" height="20" viewBox="0 0 20 20" fill="none" xmlns="http://www.w3.org/2000/svg">
  <path fill-rule="evenodd" clip-rule="evenodd" d="M15.5 10C17.433 10 19 8.433 19 6.5C19 4.567 17.433 3 15.5 3C13.567 3 12 4.567 12 6.5C12 8.433 13.567 10 15.5 10ZM4.5 12C5.88 12 7 10.88 7 9.5C7 8.12 5.88 7 4.5 7C3.12 7 2 8.12 2 9.5C2 10.88 3.12 12 4.5 12ZM15.5 8C13.019 8 11 5.981 11 3.5C11 1.019 13.019 0 15.5 0C17.981 0 20 1.019 20 3.5C20 5.981 17.981 8 15.5 8ZM4.5 10C2.57 10 1 11.57 1 13.5C1 15.43 2.57 17 4.5 17C6.43 17 8 15.43 8 13.5C8 11.57 6.43 10 4.5 10Z" fill="#7986AC"/>
</svg>
